<svg xmlns="http://www.w3.org/2000/svg" viewBox="0 0 1200 675" fill="none">
  <rect width="1200" height="675" fill="#0a0a0a"/>
  <rect x="0" y="0" width="1200" height="48" fill="#141414"/>
  <circle cx="24" cy="24" r="6" fill="#ef4444" opacity="0.7"/>
  <circle cx="48" cy="24" r="6" fill="#eab308" opacity="0.7"/>
  <circle cx="72" cy="24" r="6" fill="#22c55e" opacity="0.7"/>
  <text x="600" y="32" text-anchor="middle" fill="#737373" font-family="system-ui, sans-serif" font-size="14">learnaos.com/courses</text>
  <rect x="80" y="80" width="220" height="515" rx="12" fill="#141414" stroke="#262626"/>
  <rect x="100" y="110" width="140" height="10" rx="5" fill="#c6ff00" opacity="0.9"/>
  <rect x="100" y="140" width="180" height="8" rx="4" fill="#404040"/>
  <rect x="100" y="165" width="160" height="8" rx="4" fill="#404040"/>
  <rect x="100" y="190" width="170" height="8" rx="4" fill="#404040"/>
  <rect x="100" y="230" width="150" height="8" rx="4" fill="#525252"/>
  <rect x="100" y="255" width="165" height="8" rx="4" fill="#525252"/>
  <rect x="340" y="80" width="780" height="515" rx="12" fill="#141414" stroke="#262626"/>
  <text x="380" y="150" fill="#fafafa" font-family="system-ui, sans-serif" font-size="42" font-weight="700">LearnaOS</text>
  <text x="380" y="200" fill="#c6ff00" font-family="system-ui, sans-serif" font-size="24" font-weight="600">GitHub repos as courses you can read</text>
  <text x="380" y="260" fill="#a3a3a3" font-family="system-ui, sans-serif" font-size="18">One command converts any repo into a book-style website.</text>
  <rect x="380" y="300" width="320" height="44" rx="8" fill="#c6ff00"/>
  <text x="540" y="328" text-anchor="middle" fill="#0a0a0a" font-family="ui-monospace, monospace" font-size="15" font-weight="600">npx learnaos@latest owner/repo</text>
  <rect x="380" y="380" width="700" height="160" rx="8" fill="#0a0a0a" stroke="#262626"/>
  <text x="400" y="420" fill="#737373" font-family="ui-monospace, monospace" font-size="14"># Chapter 1  Introduction</text>
  <text x="400" y="450" fill="#d4d4d4" font-family="ui-monospace, monospace" font-size="14">Markdown, notebooks, and code files  structured chapter by chapter.</text>
  <text x="400" y="480" fill="#737373" font-family="ui-monospace, monospace" font-size="14">Starter $9/mo · Pro with AI tutor coming soon</text>
  <path d="M980 520 L1010 490 L1040 520 L1070 490" stroke="#14b8a6" stroke-width="4" stroke-linecap="round" stroke-linejoin="round"/>
  <circle cx="980" cy="520" r="8" fill="#14b8a6"/>
  <circle cx="1010" cy="490" r="8" fill="#14b8a6"/>
  <circle cx="1040" cy="520" r="8" fill="#14b8a6"/>
</svg>
